{"title":"I.Wish.[Kiseki].2011.DVDRip.XviD.AC3.HORiZON-ArtSubs","uid":6945370,"size":1904863506,"categoryP":"video","categoryS":"movies","magnet":"?xt=urn:btih:13f15816c64f1170bdb58d1e8c7d86aadcdd3d02&amp;dn=I.Wish.%5BKiseki%5D.2011.DVDRip.XviD.AC3.HORiZON-ArtSubs&amp;tr=udp%3A%2F%2Ftracker.openbittorrent.com%3A80&amp;tr=udp%3A%2F%2Fopen.demonii.com%3A1337&amp;tr=udp%3A%2F%2Ftracker.coppersurfer.tk%3A6969&amp;tr=udp%3A%2F%2Fexodus.desync.com%3A6969","seeders":0,"leechers":0,"uploader":"lletaif","files":3,"time":1326203405,"description":"Title: I Wish Aka Kiseki (2010)\n\nDirector: Hirokazu Kore-Eda\n\nWriter: Hirokazu Kore-Eda \n\nStars: Koki Maeda, OhshirÃƒÂ´ Maeda and RyÃƒÂ´ga Hayashi\n\nLanguage: Japanese\n\nSubtitles: English and Japanese\n\nImdb: http://www.imdb.com/title/tt1650453/\n\nPlot: Two brothers are separated after their parent\\'s divorce. Older brother Koichi (Koki Maeda) lives with his mother (Nene Otsuka) and grandparents in Kagoshima. Younger brother Ryonosuke (Oshiro Maeda) lives with his father (Joe Odagiri) in Fukuoka. Meanwhile, the Kyushu trainline connecting these two cities is nearing completion. A rumor spreads that when the bullet trains first runs (one coming from the north and one coming from south) and at the exact moment the two trains crosses paths energy is released and wishes will be granted to those that witness the event. Koichi hears of the rumor and implements a plan with his younger brother to reunite his family...\n\n\nRip Spects:\n\nGeneral\nComplete name             : I.Wish.[Kiseki].2011.DVDRip.XviD.AC3.HORiZON-ArtSubs\nFormat                           : AVI\nFormat/Info                      : Audio Video Interleave\nFile size                        : 1.75 GiB\nDuration                         : 2h 8mn\nOverall bit rate                 : 1 950 Kbps\nWriting application              : FairUse Wizard - http://fairusewizard.com\nWriting library                  : The best and REALLY easy backup tool\n\nVideo\nID                               : 0\nFormat                           : MPEG-4 Visual\nFormat profile                   : Advanced Simple@L5\nFormat settings, BVOP            : 1\nFormat settings, QPel            : No\nFormat settings, GMC             : No warppoints\nFormat settings, Matrix          : Default (MPEG)\nMuxing mode                      : Packed bitstream\nCodec ID                         : XVID\nCodec ID/Hint                    : XviD\nDuration                         : 2h 8mn\nBit rate                         : 1 493 Kbps\nWidth                            : 688 pixels\nHeight                           : 368 pixels\nDisplay aspect ratio             : 1.870\nFrame rate                       : 23.976 fps\nColor space                      : YUV\nChroma subsampling               : 4:2:0\nBit depth                        : 8 bits\nScan type                        : Progressive\nCompression mode                 : Lossy\nBits/(Pixel*Frame)               : 0.246\nStream size                      : 1.34 GiB (77%)\nWriting library                  : XviD 1.2.0.dev47 (UTC 2006-11-01)\n\nAudio\nID                               : 1\nFormat                           : AC-3\nFormat/Info                      : Audio Coding 3\nMode extension                   : CM (complete main)\nCodec ID                         : 2000\nDuration                         : 2h 8mn\nBit rate mode                    : Constant\nBit rate                         : 448 Kbps\nChannel(s)                       : 2 channels\nChannel positions                : Front: L R\nSampling rate                    : 48.0 KHz\nBit depth                        : 16 bits\nCompression mode                 : Lossy\nStream size                      : 413 MiB (23%)\nAlignment                        : Split accross interleaves\nInterleave, duration             : 42 ms (1.00 video frame)\nInterleave, preload duration     : 500 ms\n","torrent":{"xt":"urn:btih:13f15816c64f1170bdb58d1e8c7d86aadcdd3d02","amp;dn":"I.Wish.%5BKiseki%5D.2011.DVDRip.XviD.AC3.HORiZON-ArtSubs","amp;tr":["udp%3A%2F%2Ftracker.openbittorrent.com%3A80","udp%3A%2F%2Fopen.demonii.com%3A1337","udp%3A%2F%2Ftracker.coppersurfer.tk%3A6969","udp%3A%2F%2Fexodus.desync.com%3A6969"],"infoHash":"13f15816c64f1170bdb58d1e8c7d86aadcdd3d02","infoHashBuffer":{"type":"Buffer","data":[19,241,88,22,198,79,17,112,189,181,141,30,140,125,134,170,220,221,61,2]},"announce":[],"urlList":[]}}